<svg width="32" height="32" viewBox="0 0 32 32" fill="none" xmlns="http://www.w3.org/2000/svg">
<path d="M13.7328 19.0102C13.6256 19.4103 13.8631 19.8216 14.2632 19.9288C14.6633 20.036 15.0745 19.7985 15.1817 19.3984L13.7328 19.0102ZM17.171 9.07676L17.8954 9.27087L17.171 9.07676ZM21.2229 10.1625L20.4984 9.96835L21.2229 10.1625ZM20.1375 14.2133L19.413 14.0192C19.3221 14.3584 19.4789 14.7154 19.7902 14.878L20.1375 14.2133ZM26.4054 17.4879L26.0581 18.1527C26.0631 18.1553 26.0681 18.1578 26.0732 18.1603L26.4054 17.4879ZM28.2129 21.4823L27.4884 21.2882V21.2882L28.2129 21.4823ZM27.111 25.5943L27.8355 25.7884L27.111 25.5943ZM25.9155 27.8164L26.4767 28.314L25.9155 27.8164ZM20.3856 29.4773L20.1914 30.2017L20.3856 29.4773ZM17.1819 28.6189L17.376 27.8944H17.376L17.1819 28.6189ZM11.6802 23.5619L12.3857 23.3074L12.3857 23.3073L11.6802 23.5619ZM10.9217 21.4592L11.6272 21.2047C11.6151 21.1713 11.6007 21.1388 11.5841 21.1075L10.9217 21.4592ZM10.6364 18.9441L9.91192 18.75L10.6364 18.9441ZM12.2708 15.7419C12.378 15.3418 12.1406 14.9306 11.7405 14.8234C11.3404 14.7162 10.9292 14.9536 10.8219 15.3537L12.2708 15.7419ZM8.18181 4.15728C8.4747 3.86439 8.4747 3.38952 8.18181 3.09662C7.88892 2.80373 7.41404 2.80373 7.12115 3.09662L8.18181 4.15728ZM3.74481 7.53362L3.21448 7.00329C3.07383 7.14394 2.99481 7.33471 2.99481 7.53362C2.99481 7.73253 3.07383 7.9233 3.21448 8.06395L3.74481 7.53362ZM7.12115 11.9706C7.41404 12.2635 7.88892 12.2635 8.18181 11.9706C8.4747 11.6777 8.4747 11.2028 8.18181 10.91L7.12115 11.9706ZM12.8488 8.28362C13.263 8.28362 13.5988 7.94783 13.5988 7.53362C13.5988 7.11941 13.263 6.78362 12.8488 6.78362V8.28362ZM3.75681 6.78362C3.3426 6.78362 3.00681 7.11941 3.00681 7.53362C3.00681 7.94783 3.3426 8.28362 3.75681 8.28362L3.75681 6.78362ZM15.1817 19.3984L17.8954 9.27087L16.4465 8.88264L13.7328 19.0102L15.1817 19.3984ZM17.8954 9.27087C18.088 8.55224 18.827 8.12554 19.5457 8.3181L19.9339 6.86921C18.4151 6.46224 16.8535 7.36381 16.4465 8.88264L17.8954 9.27087ZM19.5457 8.3181C20.2643 8.51065 20.691 9.24972 20.4984 9.96835L21.9473 10.3566C22.3543 8.83775 21.4527 7.27618 19.9339 6.86921L19.5457 8.3181ZM20.4984 9.96835L19.413 14.0192L20.8619 14.4074L21.9473 10.3566L20.4984 9.96835ZM19.7902 14.878L26.0581 18.1527L26.7527 16.8232L20.4848 13.5485L19.7902 14.878ZM26.0732 18.1603C27.2296 18.7317 27.8224 20.0416 27.4884 21.2882L28.9373 21.6764C29.4563 19.7393 28.5355 17.7039 26.7377 16.8155L26.0732 18.1603ZM27.4884 21.2882L26.3866 25.4002L27.8355 25.7884L28.9373 21.6764L27.4884 21.2882ZM26.3866 25.4002C26.196 26.1115 25.843 26.7678 25.3544 27.3188L26.4767 28.314C27.1199 27.5887 27.5846 26.7246 27.8355 25.7884L26.3866 25.4002ZM25.3544 27.3188C24.1631 28.6622 22.3145 29.2177 20.5797 28.7528L20.1914 30.2017C22.4751 30.8136 24.9085 30.0825 26.4767 28.314L25.3544 27.3188ZM20.5797 28.7528L17.376 27.8944L16.9877 29.3433L20.1914 30.2017L20.5797 28.7528ZM17.376 27.8944C15.0619 27.2743 13.1986 25.5609 12.3857 23.3074L10.9747 23.8163C11.954 26.5314 14.1991 28.5961 16.9877 29.3433L17.376 27.8944ZM12.3857 23.3073L11.6272 21.2047L10.2162 21.7137L10.9747 23.8164L12.3857 23.3073ZM11.5841 21.1075C11.2632 20.5033 11.1834 19.8001 11.3608 19.1382L9.91192 18.75C9.6365 19.7778 9.7602 20.8711 10.2593 21.811L11.5841 21.1075ZM11.3608 19.1382L12.2708 15.7419L10.8219 15.3537L9.91192 18.75L11.3608 19.1382ZM7.12115 3.09662L3.21448 7.00329L4.27514 8.06395L8.18181 4.15728L7.12115 3.09662ZM3.21448 8.06395L7.12115 11.9706L8.18181 10.91L4.27514 7.00329L3.21448 8.06395ZM12.8488 6.78362L3.75681 6.78362L3.75681 8.28362L12.8488 8.28362V6.78362Z" fill="#152044"/>
</svg>
